# xmcd
# Track frame offsets:
# 150
# 14019
# 31106
# 46298
# 58730
# 75025
# 90737
# 103496
# 119170
# 137903
# 150667
# 163872
# 180619
# 196576
#
# Disc length: 2819 seconds
# Revision: 0
# Processed by: cddbd v1.5.1PL2 Copyright (c) Steve Scherf et al.
# Submitted via: VisiTrax 2.10.0.248 - For more info visit www.synapsa.com
#
DISCID=b70b010e
DTITLE=Various Artist - Australia's Hottest Line Dances - Vol. 1
DYEAR=1900
DGENRE=
TTITLE0=Texas Tornadoes - Is Anybody Going To San Antone
TTITLE1=Greg Holland - Teach Me To Dance
TTITLE2=Nitty Gritty Dirt Band - Fishin' In The Dark
TTITLE3=Scooter Lee - Dizzy
TTITLE4=The Cheap Seats - Brown Eyed Girl
TTITLE5=Thrasher Shiver - Closer
TTITLE6=George Fox - Way Out In The Country
TTITLE7=Ray Vega - Remember When
TTITLE8=Southern Pacific - Perfect Stranger
TTITLE9=David Ball - Hangin' In and Holdin' On
TTITLE10=Royal Wade Kimes - "S" On My Chest
TTITLE11=Gina G - Fresh
TTITLE12=Rick Tippe - Dance On
TTITLE13=Keith Urban - Honky Tonk Rock
EXTD=
EXTT0=
EXTT1=
EXTT2=
EXTT3=
EXTT4=
EXTT5=
EXTT6=
EXTT7=
EXTT8=
EXTT9=
EXTT10=
EXTT11=
EXTT12=
EXTT13=
PLAYORDER=
